<svg xmlns="http://www.w3.org/2000/svg" viewBox="0 0 854 802"><defs><style>.cls-1{fill:none;}.cls-2{fill:#141212;}.cls-3{fill:#19284c;}.cls-4,.cls-5{fill:#94a384;}.cls-5{stroke:#94a384;stroke-miterlimit:10;stroke-width:2px;}</style></defs><g id="Capa_2" data-name="Capa 2"><g id="Capa_1-2" data-name="Capa 1"><path class="cls-1" d="M530.59,93l-170,534.47H350.51l-223-535.11L69.42,88.54V70.85h213.5V88.54l-52.31,3.84,160.26,386.7h5.79L522.72,92.38Z"/><path class="cls-2" d="M360.82,627.75H350.35l-.07-.15-222.94-535L69.17,88.78V70.6h214V88.78L231,92.61,391,478.83h5.43L522.55,92.12l8.37.69-.09.3Zm-10.14-.5h9.77l169.81-534-7.36-.61L396.84,479.33h-6.13l-.07-.15-160.4-387,52.43-3.85V71.1h-213V88.31l58,3.84.06.15Z"/><path class="cls-3" d="M361.42,628.58H349.79l-.27-.66L126.77,93.42,68.34,89.55V69.77H284V89.55l-51.83,3.8L391.59,478h4.28L522,91.24l10.07.83-.41,1.29Zm-10.19-2.16h8.61L529.15,94l-5.67-.47-126,386.63h-7.29l-.27-.66L229,91.42l52.81-3.88V71.93H70.5v15.6l57.75,3.83.25.62Z"/><path class="cls-4" d="M361.6,628.83h-12l-.34-.82L126.6,93.66,68.09,89.79V69.52H284.25V89.78l-51.71,3.79L391.76,477.75h3.93L521.79,91l10.57.88-.5,1.59Zm-11.64-.5h11.28l170.46-536-9.56-.79L396.05,478.25h-4.62l-.07-.15-159.55-385,51.94-3.82V70H68.59v19.3l58.35,3.86.06.15ZM360,626.67h-9l-.07-.15L128.08,91.6,70.25,87.77V71.68H282.1V87.77l-52.7,3.87L390.32,479.91h6.94l126-386.65,6.18.51-.1.3ZM128.73,91.88,351.4,626.17h8.26L528.82,94.22l-5.16-.43-126,386.62H390l-.34-.82-161-388.4,52.93-3.88L231,93.5H128L70.75,87.3l57.67,3.82.31.76"/><path class="cls-4" d="M363.07,630.83H348.29l-.85-2.05L125.23,95.58,66.09,91.66V67.52H286.25V91.64l-50.81,3.73L393.1,475.75h1.14L520.37,88.85,535,90.06l-1.27,4Zm-10.34-6.66h5.47L526.15,96l-1.08-.09-126,386.49H388.65L228.29,95.5H132.41ZM130.74,91.5h95.9l-.87-2.1,54.33-4V73.68H72.25V85.4l57.54,3.81Z"/><path class="cls-4" d="M732.66,614,549.88,86.26l45-3.72V70.85H544.55v0H527.23v0H472.16V82.54l49.91,3.69L345.27,614l-46.55,3.85v17.7H419.13v-17.7L367.2,614,411.82,476.3H584.17L629.56,614l-51.94,3.83v17.7H783.44v-17.7ZM418.75,453.22l78.47-239.28h1.54l76.94,236.2Z"/><path class="cls-4" d="M854,802H0V0H854ZM10,792H844V10H10Z"/><path class="cls-5" d="M69.38,696.38h2a.86.86,0,0,1,.57.18,1.39,1.39,0,0,1,.36.49l12,29.35a16.31,16.31,0,0,1,.77,2.45,13.33,13.33,0,0,1,.73-2.45l12-29.35a1.26,1.26,0,0,1,.36-.47.86.86,0,0,1,.59-.2h2l-14.6,35.37H84Z"/><path class="cls-5" d="M154.92,731.75h-2a.84.84,0,0,1-.57-.19,1.07,1.07,0,0,1-.35-.48l-4.18-10.28H130.47l-4.15,10.28a1,1,0,0,1-.35.47.92.92,0,0,1-.59.2h-2l14.48-35.37h2.55ZM131.25,718.9H147.1L139.88,701c-.12-.29-.24-.61-.35-1s-.24-.73-.36-1.14c-.11.41-.23.78-.35,1.14s-.23.69-.35,1Z"/><path class="cls-5" d="M187.27,729.58h16.78v2.17H184.72V696.38h2.55Z"/><path class="cls-5" d="M261.12,731.75h-2a.86.86,0,0,1-.58-.19,1.25,1.25,0,0,1-.35-.48l-4.17-10.28H236.67l-4.15,10.28a1,1,0,0,1-.35.47.92.92,0,0,1-.6.2h-1.95l14.48-35.37h2.55ZM237.45,718.9H253.3L246.07,701c-.11-.29-.23-.61-.35-1s-.23-.73-.35-1.14c-.11.41-.23.78-.35,1.14s-.23.69-.35,1Z"/><path class="cls-5" d="M294.22,715.75v16h-2.55V696.38h9c4.08,0,7.13.78,9.15,2.36a8.26,8.26,0,0,1,3,6.93,9.47,9.47,0,0,1-.7,3.71,8.53,8.53,0,0,1-2,2.93,10.71,10.71,0,0,1-3.16,2.08,14.32,14.32,0,0,1-4.18,1.06,4.06,4.06,0,0,1,1.08,1l12.17,15.3h-2.22a1.47,1.47,0,0,1-.69-.15,1.82,1.82,0,0,1-.56-.5l-11.33-14.35a2.43,2.43,0,0,0-.91-.78,4,4,0,0,0-1.51-.22Zm0-1.9h6.15a14.82,14.82,0,0,0,4.22-.56,9,9,0,0,0,3.15-1.62,7.06,7.06,0,0,0,2-2.52,7.88,7.88,0,0,0,.67-3.32,6.52,6.52,0,0,0-2.47-5.61q-2.47-1.82-7.2-1.82h-6.48Z"/><path class="cls-5" d="M368.65,696.38v2.17H356.22v33.2h-2.55v-33.2h-12.5v-2.17Z"/><path class="cls-5" d="M420.17,696.38v2.12H401.55v14.3h15.5v2.08h-15.5v14.74h18.62v2.13H399V696.38Z"/><path class="cls-5" d="M503.7,700.67a.7.7,0,0,1-.65.43,1.41,1.41,0,0,1-.84-.46,11.63,11.63,0,0,0-1.4-1,10.7,10.7,0,0,0-2.19-1,11,11,0,0,0-6.65.07,7.23,7.23,0,0,0-2.45,1.5,6.37,6.37,0,0,0-1.51,2.2,6.87,6.87,0,0,0-.51,2.62,5.36,5.36,0,0,0,.76,3,6.88,6.88,0,0,0,2,2,13.17,13.17,0,0,0,2.84,1.39l3.26,1.11c1.12.37,2.21.77,3.27,1.21a11.55,11.55,0,0,1,2.84,1.67,7.46,7.46,0,0,1,2,2.46,7.74,7.74,0,0,1,.76,3.63,11.42,11.42,0,0,1-.76,4.19A9.93,9.93,0,0,1,502.3,729a10.53,10.53,0,0,1-3.55,2.28,12.84,12.84,0,0,1-4.8.84,13.52,13.52,0,0,1-6-1.24,14.09,14.09,0,0,1-4.42-3.38l.7-1.11a.87.87,0,0,1,.7-.37,1,1,0,0,1,.57.3l.85.74c.34.29.74.61,1.21.95a9.88,9.88,0,0,0,1.62,1,11.05,11.05,0,0,0,2.13.73A11.27,11.27,0,0,0,494,730a10.45,10.45,0,0,0,3.75-.64,8.32,8.32,0,0,0,2.8-1.74A7.43,7.43,0,0,0,502.3,725a8.72,8.72,0,0,0,.6-3.24,5.71,5.71,0,0,0-.77-3.09,6.56,6.56,0,0,0-2-2,12.88,12.88,0,0,0-2.84-1.36q-1.59-.55-3.27-1.08t-3.27-1.17a11.24,11.24,0,0,1-2.84-1.67,7.61,7.61,0,0,1-2-2.52,8.5,8.5,0,0,1-.76-3.79,9,9,0,0,1,.68-3.43,8.56,8.56,0,0,1,2-2.91,9.62,9.62,0,0,1,3.21-2,11.7,11.7,0,0,1,4.37-.77,13.26,13.26,0,0,1,4.94.88,11.73,11.73,0,0,1,4,2.68Z"/><path class="cls-5" d="M560,696.38v2.17H547.57v33.2H545v-33.2h-12.5v-2.17Z"/><path class="cls-5" d="M603.4,729.92A11.21,11.21,0,0,0,608,729a9.86,9.86,0,0,0,3.41-2.46,10.86,10.86,0,0,0,2.14-3.72,14.06,14.06,0,0,0,.74-4.61V696.38h2.54v21.87a15.73,15.73,0,0,1-.92,5.46,13.13,13.13,0,0,1-2.66,4.43,12.32,12.32,0,0,1-4.23,3,15.11,15.11,0,0,1-11.17,0,12.32,12.32,0,0,1-4.23-3,13.13,13.13,0,0,1-2.66-4.43,15.73,15.73,0,0,1-.92-5.46V696.38h2.57v21.84a14.12,14.12,0,0,0,.74,4.62,11,11,0,0,0,2.12,3.71,10,10,0,0,0,3.4,2.48A11.26,11.26,0,0,0,603.4,729.92Z"/><path class="cls-5" d="M681,714.05a21.06,21.06,0,0,1-1.22,7.37,15.83,15.83,0,0,1-3.46,5.58,15,15,0,0,1-5.32,3.53,18.7,18.7,0,0,1-6.87,1.22H651.2V696.38h12.9A18.5,18.5,0,0,1,671,697.6a15,15,0,0,1,5.32,3.52,16,16,0,0,1,3.46,5.58A21,21,0,0,1,681,714.05Zm-2.65,0a19.54,19.54,0,0,0-1-6.6,13.82,13.82,0,0,0-2.88-4.9,12.31,12.31,0,0,0-4.49-3,15.54,15.54,0,0,0-5.82-1H653.77v31.22H664.1a15.34,15.34,0,0,0,5.82-1,12.29,12.29,0,0,0,4.49-3,13.87,13.87,0,0,0,2.88-4.91A19.62,19.62,0,0,0,678.32,714.05Z"/><path class="cls-5" d="M716.89,731.75h-2.57V696.38h2.57Z"/><path class="cls-5" d="M784.09,714.05a21.43,21.43,0,0,1-1.22,7.44,16.67,16.67,0,0,1-3.45,5.7,15.3,15.3,0,0,1-5.33,3.65,19,19,0,0,1-13.7,0,15.36,15.36,0,0,1-5.32-3.65,16.54,16.54,0,0,1-3.46-5.7,22.85,22.85,0,0,1,0-14.85,16.36,16.36,0,0,1,3.46-5.7,15.25,15.25,0,0,1,5.32-3.66,17.47,17.47,0,0,1,6.83-1.31,17.67,17.67,0,0,1,6.87,1.29,15.2,15.2,0,0,1,5.33,3.66,16.76,16.76,0,0,1,3.45,5.72A21.25,21.25,0,0,1,784.09,714.05Zm-2.65,0a20.27,20.27,0,0,0-1-6.65,14.29,14.29,0,0,0-2.89-5,12.4,12.4,0,0,0-4.49-3.14,15.16,15.16,0,0,0-5.82-1.09,14.93,14.93,0,0,0-5.76,1.09,12.53,12.53,0,0,0-4.5,3.14,14.22,14.22,0,0,0-2.93,5,21.81,21.81,0,0,0,0,13.31,14.26,14.26,0,0,0,2.93,5,12.38,12.38,0,0,0,4.5,3.13,15.11,15.11,0,0,0,5.76,1.07,15.35,15.35,0,0,0,5.82-1.07,12.26,12.26,0,0,0,4.49-3.13,14.34,14.34,0,0,0,2.89-5A20.25,20.25,0,0,0,781.44,714.05Z"/></g></g></svg>