<svg xmlns="http://www.w3.org/2000/svg" viewBox="0 0 122 100.86"><defs><style>.cls-1{fill:none;}.cls-2{fill:#141212;}.cls-3{fill:#94a384;}</style></defs><g id="Capa_2" data-name="Capa 2"><g id="Capa_1-2" data-name="Capa 1"><path class="cls-1" d="M75.8,13.29,51.52,89.64H50.07L18.22,13.2l-8.3-.55V10.12h30.5v2.53l-7.48.55,22.9,55.24h.83l18-55.24Z"/><path class="cls-2" d="M51.55,89.68h-1.5v0L18.19,13.23l-8.31-.55V10.09H40.45v2.59L33,13.23,55.86,68.4h.78l18-55.24,1.2.1,0,0Zm-1.45-.07h1.39L75.75,13.32l-1-.08-18,55.24h-.87v0L32.89,13.17l7.49-.55V10.16H10v2.46l8.29.54v0Z"/><path class="cls-3" d="M51.63,89.8H50l0-.1L18.11,13.35l-8.35-.56V10H40.57v2.82l-7.4.55,22.77,55h.61L74.57,13l1.43.12,0,.19Zm-1.45-.31h1.23L75.59,13.43l-.81-.07-18,55.23h-1l0-.09-23-55.44,7.54-.55V10.28H10.07V12.5l8.25.55,0,.09Z"/><path class="cls-3" d="M51.66,89.83H50l-.05-.11L18.09,13.38l-8.36-.55V9.93H40.61v2.9l-7.39.54L56,68.25h.56L74.54,13l1.51.12-.07.23ZM50,89.76h1.62L76,13.18l-1.37-.11-18,55.25h-.66v0l-22.79-55,7.42-.54V10H9.8v2.76l8.33.55v0Zm1.44-.24H50.15v0L18.3,13.09,10,12.54v-2.3H40.3v2.3l-7.53.55,23,55.47h1l18-55.24.88.08v0Zm-33-76.39L50.2,89.45h1.18l24.17-76-.74-.06-18,55.23H55.71l-.05-.12L32.67,13l7.56-.56L33,13.36H18.29l-8.18-.89,8.24.55,0,.11"/><path class="cls-3" d="M51.87,90.12H49.76l-.13-.29L17.89,13.65l-8.45-.56V9.65H40.89v3.44l-7.26.53L56.16,68h.16l18-55.27,2.09.18-.18.56Zm-1.48-1h.78l24-75.45-.15,0L57,68.92H55.52L32.61,13.64H18.92ZM18.68,13.07h13.7l-.13-.3L40,12.2V10.53H10.32V12.2l8.22.54Z"/><path class="cls-3" d="M104.67,87.72,78.55,12.32,85,11.79V10.12H67.45v1.67l7.13.53L49.32,87.72l-6.65.55V90.8H59.88V88.27l-7.42-.55L58.83,68H83.45l6.49,19.68-7.42.55V90.8h29.4V88.27Zm-44.85-23L71,30.56h.22l11,33.75Z"/><path class="cls-3" d="M122,100.86H0V0H122ZM1.43,99.6H120.57V1.26H1.43Z"/></g></g></svg>